<?xml version="1.0" standalone="no"?>
<!DOCTYPE svg PUBLIC "-//W3C//DTD SVG 20010904//EN"
 "http://www.w3.org/TR/2001/REC-SVG-20010904/DTD/svg10.dtd">
<svg version="1.0" xmlns="http://www.w3.org/2000/svg"
 width="1000.000000pt" height="1000.000000pt" viewBox="0 0 1000.000000 1000.000000"
 preserveAspectRatio="xMidYMid meet">
<metadata>
Created by potrace 1.11, written by Peter Selinger 2001-2013
</metadata>
<g transform="translate(0.000000,1000.000000) scale(0.100000,-0.100000)"
fill="#000000" stroke="none">
<path d="M0 5000 l0 -5000 5000 0 5000 0 0 5000 0 5000 -5000 0 -5000 0 0
-5000z m5445 2800 c475 -41 886 -194 1222 -456 l81 -64 139 151 c76 83 139
145 140 138 12 -64 162 -1353 159 -1356 -2 -3 -320 -1 -706 4 l-702 8 133 144
133 144 -75 71 c-120 113 -293 205 -486 258 -67 19 -103 22 -258 22 -162 0
-190 -3 -277 -27 -215 -57 -368 -169 -444 -323 l-39 -78 0 -141 0 -141 38 -76
c28 -58 54 -92 108 -142 110 -101 226 -154 669 -300 568 -187 749 -264 954
-402 277 -185 475 -440 555 -710 68 -233 78 -551 25 -813 -61 -306 -196 -555
-423 -782 -225 -224 -478 -363 -816 -447 -496 -124 -1013 -100 -1502 69 -308
106 -546 246 -765 448 l-76 71 -131 -139 -130 -140 -6 32 c-14 81 -155 1330
-151 1335 5 4 1398 -16 1402 -21 1 -1 -56 -64 -127 -141 -71 -76 -129 -142
-129 -147 0 -5 27 -40 60 -78 153 -178 406 -325 678 -394 75 -19 113 -22 272
-21 167 0 194 3 282 27 240 64 420 217 478 405 26 83 36 219 21 296 -23 124
-95 232 -211 319 -120 91 -260 151 -663 286 -424 143 -574 199 -722 273 -404
201 -672 533 -756 938 -39 184 -41 491 -4 671 95 464 430 845 926 1053 335
140 762 207 1124 176z"/>
</g>
</svg>
